#!OML:ASF F:\VICON\USERDATA\INSTALL\rory3\rory3.ASF
:FULLY-SPECIFIED
:DEGREES
1806
root -0.0461525 15.1562 -0.481646 3.89834 1.84037 4.69015
lowerback 11.2821 -1.22181 0.734061
upperback -1.41266 -1.32523 2.58531
thorax -7.7996 -0.613783 2.564
lowerneck 14.4138 -10.0837 -15.1035
upperneck 7.41137 -15.824 10.3641
head 1.96641 -8.36031 5.66189
rclavicle -1.19271e-014 2.54444e-014
rhumerus -67.3881 20.4788 -72.7629
rradius 127.567
rwrist -42.443
rhand 42.0652 9.95112
rfingers 7.12502
rthumb 64.0834 1.3185
lclavicle -1.19271e-014 2.54444e-014
lhumerus -70.3543 -21.4342 75.5844
lradius 123.889
lwrist 79.9467
lhand 24.4602 41.0638
lfingers 7.12502
lthumb 48.6651 62.9602
rfemur -25.7581 -0.977661 11.9741
rtibia 52.1085
rfoot -23.5356 -9.74096
rtoes -22.3368
lfemur -22.5002 6.56058 -20.7857
ltibia 43.5156
lfoot -17.218 -7.46737
ltoes -7.28705
1807
root -0.0547956 15.1504 -0.501412 3.92535 1.67538 4.88019
lowerback 11.8295 -1.26918 0.702145
upperback -1.24157 -1.38024 2.62941
thorax -7.92529 -0.637008 2.65233
lowerneck 14.3858 -9.9568 -15.0534
upperneck 6.34845 -15.596 10.6301
head 1.63635 -8.23369 5.77208
rclavicle -2.5842e-015 -4.77083e-015
rhumerus -67.2378 21.2945 -73.4163
rradius 127.783
rwrist -42.641
rhand 41.6272 9.99799
rfingers 7.12502
rthumb 63.7296 0.838469
lclavicle -2.5842e-015 -4.77083e-015
lhumerus -70.3051 -21.4339 76.1941
lradius 123.981
lwrist 79.8292
lhand 24.8916 41.6106
lfingers 7.12502
lthumb 49.0616 63.3124
rfemur -26.0262 -0.968573 11.7838
rtibia 52.303
rfoot -23.4112 -9.61043
rtoes -22.5146
lfemur -22.6913 6.80054 -20.9732
ltibia 43.7159
lfoot -17.2599 -7.54942
ltoes -7.45453
1808
root -0.0674515 15.1392 -0.527791 3.90689 1.46989 4.71825
lowerback 12.4708 -1.3261 0.939781
upperback -1.03983 -1.3986 2.75883
thorax -8.07695 -0.651769 2.6758
lowerneck 14.3255 -9.77633 -14.8186
upperneck 5.21449 -15.2576 10.8423
head 1.25795 -8.04748 5.84444
rclavicle 3.57812e-015 -1.43125e-014
rhumerus -66.9791 22.2683 -74.2089
rradius 127.902
rwrist -42.8053
rhand 41.326 10.3056
rfingers 7.12502
rthumb 63.4848 0.792134
lclavicle 3.57812e-015 -1.43125e-014
lhumerus -70.2716 -21.5352 76.8904
lradius 123.969
lwrist 79.797
lhand 25.1747 41.8103
lfingers 7.12502
lthumb 49.3215 63.3821
rfemur -26.2862 -0.815935 12.0174
rtibia 52.5268
rfoot -23.2129 -9.44094
rtoes -22.4289
lfemur -22.9184 7.04063 -20.7318
ltibia 43.9639
lfoot -17.2156 -7.66998
ltoes -7.2594
1809
root -0.0800361 15.1272 -0.558798 3.89563 1.25316 4.57335
lowerback 13.0704 -1.39296 1.15749
upperback -0.746229 -1.43645 2.85307
thorax -8.10412 -0.677148 2.67308
lowerneck 14.035 -9.53837 -14.3486
upperneck 4.04449 -14.773 10.9053
head 0.858017 -7.77783 5.82846
rclavicle 8.54774e-015 3.97569e-014
rhumerus -66.605 23.267 -75.1329
rradius 127.991
rwrist -42.9015
rhand 41.1043 10.7542
rfingers 7.12502
rthumb 63.3041 0.984665
lclavicle 8.54774e-015 3.97569e-014
lhumerus -70.1195 -21.7281 77.5796
lradius 123.832
lwrist 79.797
lhand 25.3876 41.6753
lfingers 7.12502
lthumb 49.5168 63.1482
rfemur -26.6275 -0.672487 12.2316
rtibia 52.7682
rfoot -23.1054 -9.393
rtoes -22.6976
lfemur -23.191 7.32868 -20.5132
ltibia 44.2402
lfoot -17.0738 -7.84073
ltoes -7.20876
1810
root -0.0895946 15.1162 -0.587486 3.80456 1.05004 4.56247
lowerback 13.5956 -1.46087 1.27395
upperback -0.31722 -1.49669 2.9376
thorax -7.93834 -0.710932 2.71516
lowerneck 13.48 -9.21227 -13.9198
upperneck 2.89389 -14.1489 10.8889
head 0.487329 -7.43395 5.77888
rclavicle 3.77691e-015 -1.11319e-014
rhumerus -66.1252 24.4101 -76.0507
rradius 128.03
rwrist -42.9408
rhand 41.2172 10.9871
rfingers 7.12502
rthumb 63.3962 1.34742
lclavicle 3.77691e-015 -1.11319e-014
lhumerus -69.765 -21.9702 78.2855
lradius 123.598
lwrist 79.7243
lhand 25.9977 42.1266
lfingers 7.12502
lthumb 50.0755 63.3096
rfemur -26.8215 -0.5822 12.2667
rtibia 52.9773
rfoot -23.0778 -8.9562
rtoes -21.7073
lfemur -23.3516 7.6232 -20.456
ltibia 44.5244
lfoot -16.9581 -7.92637
ltoes -7.21166
1811
root -0.0971723 15.1082 -0.612383 3.53099 0.837342 4.49671
lowerback 14.1801 -1.48365 1.53522
upperback 0.18245 -1.47405 3.00164
thorax -7.73591 -0.710449 2.63681
lowerneck 12.8287 -8.86534 -13.5059
upperneck 1.92572 -13.5027 10.828
head 0.185355 -7.08025 5.70505
rclavicle -1.03368e-014 -2.22639e-014
rhumerus -65.7562 25.5738 -77.0093
rradius 128.137
rwrist -42.9298
rhand 41.8965 10.7415
rfingers 7.12502
rthumb 63.9474 1.90415
lclavicle -1.03368e-014 -2.22639e-014
lhumerus -69.6553 -22.8326 79.3205
lradius 123.494
lwrist 79.8658
lhand 25.8619 42.4938
lfingers 7.12502
lthumb 49.9513 63.7421
rfemur -26.7815 -0.460023 12.362
rtibia 53.1443
rfoot -23.0781 -8.54523
rtoes -20.3989
lfemur -23.2627 7.94504 -20.317
ltibia 44.7568
lfoot -16.9459 -7.98783
ltoes -7.16826
